{"scene":0,"asset":{"generator":"ImageToStl.com","version":"2.0"},"scenes":[{"name":"Scene","nodes":[0]}],"nodes":[{"name":"Node0","children":[1,2,3]},{"name":"Node1","mesh":0},{"name":"Node2","mesh":1},{"name":"Node3","mesh":2}],"materials":[{"name":"earth","pbrMetallicRoughness":{"baseColorFactor":[0.8,0.8,0.8,1.0],"metallicFactor":0.5,"roughnessFactor":0.64},"emissiveFactor":[0.0,0.0,0.0],"doubleSided":true},{"name":"clouds","pbrMetallicRoughness":{"baseColorFactor":[0.8,0.8,0.8,1.0],"metallicFactor":0.5,"roughnessFactor":0.64},"emissiveFactor":[0.0,0.0,0.0],"doubleSided":true},{"name":"x1","pbrMetallicRoughness":{"baseColorFactor":[0.0,0.0,0.0,1.0],"metallicFactor":0.0,"roughnessFactor":1.0},"doubleSided":true}],"meshes":[{"name":"Mesh0","primitives":[{"indices":3,"material":0,"attributes":{"POSITION":0,"NORMAL":1,"TEXCOORD_0":2}}]},{"name":"Mesh0","primitives":[{"indices":7,"material":1,"attributes":{"POSITION":4,"NORMAL":5,"TEXCOORD_0":6}}]},{"name":"Mesh0","primitives":[{"indices":11,"material":2,"attributes":{"POSITION":8,"NORMAL":9,"TEXCOORD_0":10}}]}],"accessors":[{"bufferView":0,"componentType":5126,"count":2365,"type":"VEC3","min":[-9.863814,-9.87818,-9.913654],"max":[9.863817,9.878184,9.913654]},{"bufferView":1,"componentType":5126,"count":2365,"type":"VEC3"},{"bufferView":2,"componentType":5126,"count":2365,"type":"VEC2"},{"bufferView":3,"componentType":5123,"count":35712,"type":"SCALAR"},{"bufferView":4,"componentType":5126,"count":2365,"type":"VEC3","min":[-9.965703,-9.926472,-9.93086],"max":[9.9657,9.926478,9.930862]},{"bufferView":5,"componentType":5126,"count":2365,"type":"VEC3"},{"bufferView":6,"componentType":5126,"count":2365,"type":"VEC2"},{"bufferView":7,"componentType":5123,"count":35712,"type":"SCALAR"},{"bufferView":8,"componentType":5126,"count":2365,"type":"VEC3","min":[-9.97128,-9.971286,-10.075764],"max":[9.971285,9.971281,10.075764]},{"bufferView":9,"componentType":5126,"count":2365,"type":"VEC3"},{"bufferView":10,"componentType":5126,"count":2365,"type":"VEC2"},{"bufferView":11,"componentType":5123,"count":35712,"type":"SCALAR"}],"bufferViews":[{"target":34962,"buffer":0,"byteLength":28380,"byteOffset":0},{"target":34962,"buffer":0,"byteLength":28380,"byteOffset":28380},{"target":34962,"buffer":0,"byteLength":18920,"byteOffset":56760},{"target":34963,"buffer":0,"byteLength":71424,"byteOffset":75680},{"target":34962,"buffer":0,"byteLength":28380,"byteOffset":147104},{"target":34962,"buffer":0,"byteLength":28380,"byteOffset":175484},{"target":34962,"buffer":0,"byteLength":18920,"byteOffset":203864},{"target":34963,"buffer":0,"byteLength":71424,"byteOffset":222784},{"target":34962,"buffer":0,"byteLength":28380,"byteOffset":294208},{"target":34962,"buffer":0,"byteLength":28380,"byteOffset":322588},{"target":34962,"buffer":0,"byteLength":18920,"byteOffset":350968},{"target":34963,"buffer":0,"byteLength":71424,"byteOffset":369888}],"buffers":[{"byteLength":441312,"uri":"data:application/octet-stream;base64,"}]}