<svg xmlns="http://www.w3.org/2000/svg" width="51" height="52" viewBox="0 0 51 52" fill="none">
<circle cx="25.5474" cy="26.0474" r="24.8107" fill="url(#paint0_linear_59_20)" stroke="url(#paint1_linear_59_20)" stroke-width="0.526653"/>
<path d="M26.485 28.8833C27.8154 28.8833 28.894 27.8043 28.894 26.4732C28.894 25.1422 27.8154 24.0631 26.485 24.0631C25.1545 24.0631 24.0759 25.1422 24.0759 26.4732C24.0759 27.8043 25.1545 28.8833 26.485 28.8833Z" fill="#00D8FF"/>
<path d="M26.4849 31.9944C23.1017 31.9944 20.1455 31.5959 17.9333 30.8374C16.4984 30.3477 15.2795 29.6947 14.4109 28.9506C13.4895 28.1632 13 27.3038 13 26.4733C13 24.8793 14.7468 23.319 17.6789 22.3012C20.0784 21.4658 23.2072 21.0001 26.4801 21.0001C29.6953 21.0001 32.781 21.4514 35.1661 22.2772C36.5625 22.7573 37.7383 23.3814 38.5733 24.0728C39.4803 24.8313 39.9602 25.6619 39.9602 26.4733C39.9602 28.1296 38.007 29.8052 34.8589 30.847C32.6323 31.5863 29.6569 31.9944 26.4849 31.9944ZM26.4849 22.1524C23.38 22.1524 20.3087 22.6037 18.0628 23.3862C15.3659 24.3272 14.1565 25.6139 14.1565 26.4733C14.1565 27.3663 15.457 28.773 18.3076 29.7476C20.3999 30.4629 23.2312 30.8422 26.4849 30.8422C29.537 30.8422 32.3827 30.4581 34.499 29.7524C37.4599 28.7682 38.8132 27.3615 38.8132 26.4733C38.8132 26.0172 38.4677 25.4795 37.8391 24.9562C37.1144 24.3512 36.0587 23.7991 34.7966 23.3622C32.5267 22.5845 29.5754 22.1524 26.4849 22.1524Z" fill="#00D8FF"/>
<path d="M21.0191 38.4852C20.5296 38.4852 20.0977 38.3796 19.733 38.1684C18.3557 37.3714 17.8758 35.0765 18.4565 32.0279C18.9316 29.5266 20.0929 26.5883 21.7293 23.7509C23.337 20.9664 25.2661 18.5178 27.1713 16.8615C28.2846 15.8917 29.4124 15.1811 30.4297 14.8067C31.5383 14.3986 32.4981 14.3986 33.1987 14.8019C34.6336 15.6276 35.1087 18.1626 34.4368 21.4081C33.9617 23.7125 32.8292 26.4923 31.2455 29.2433C29.5563 32.1719 27.7328 34.534 25.9716 36.0751C24.8294 37.0738 23.6537 37.8035 22.5787 38.1828C22.0173 38.3844 21.4894 38.4852 21.0191 38.4852ZM22.2236 24.039L22.7227 24.3271C21.1727 27.0156 20.0257 29.901 19.5842 32.2439C19.0516 35.0525 19.565 36.7425 20.3041 37.1698C20.4864 37.2754 20.7264 37.333 21.0191 37.333C21.9741 37.333 23.4761 36.7281 25.2133 35.211C26.8786 33.7563 28.6206 31.4902 30.2474 28.672C31.7734 26.0266 32.858 23.3669 33.3091 21.1824C33.9377 18.1242 33.3955 16.2518 32.6228 15.8053C32.2293 15.5796 31.5911 15.6084 30.8232 15.8917C29.9354 16.2182 28.9325 16.8567 27.9247 17.7353C26.1155 19.31 24.268 21.6529 22.7227 24.3319L22.2236 24.039Z" fill="#00D8FF"/>
<path d="M31.9511 38.5C30.6458 38.5 28.9902 37.7126 27.2626 36.2243C25.3334 34.5632 23.3707 32.0906 21.7295 29.2532C20.117 26.4687 18.9653 23.5737 18.4806 21.0915C18.1975 19.6416 18.1447 18.3117 18.327 17.2411C18.5286 16.0745 19.0037 15.2439 19.7091 14.8358C21.1392 14.0052 23.5722 14.8598 26.0485 17.0635C27.8049 18.6238 29.6476 20.9955 31.2361 23.7417C32.9301 26.6703 34.0674 29.4309 34.5185 31.7258C34.8112 33.2141 34.8592 34.5968 34.6529 35.7202C34.4321 36.9157 33.933 37.7654 33.2132 38.1831C32.8533 38.3944 32.4262 38.5 31.9511 38.5ZM22.7276 28.6771C24.2825 31.3657 26.2116 33.7998 28.016 35.3505C30.1803 37.2133 31.8983 37.6166 32.6421 37.1845C33.4148 36.738 33.981 34.9088 33.3956 31.9514C32.9637 29.7814 31.8743 27.1408 30.2427 24.3226C28.7118 21.6773 26.9507 19.4064 25.2854 17.9277C22.9532 15.8536 21.0624 15.3879 20.2898 15.8344C19.8963 16.0601 19.6036 16.6314 19.4644 17.438C19.306 18.3694 19.354 19.56 19.6132 20.8707C20.0738 23.228 21.1776 25.9982 22.7276 28.6771Z" fill="#00D8FF"/>
<defs>
<linearGradient id="paint0_linear_59_20" x1="11.1254" y1="1.5" x2="48.4914" y2="10.3999" gradientUnits="userSpaceOnUse">
<stop stop-color="#04071D"/>
<stop offset="1" stop-color="#0C0E23"/>
</linearGradient>
<linearGradient id="paint1_linear_59_20" x1="25.5474" y1="1.5" x2="25.5474" y2="50.5948" gradientUnits="userSpaceOnUse">
<stop stop-color="#66699C" stop-opacity="0.43"/>
<stop offset="1" stop-color="#363749" stop-opacity="0.49"/>
</linearGradient>
</defs>
</svg>