<svg xmlns="http://www.w3.org/2000/svg" width="100" height="168" viewBox="0 0 100 168" fill="none">
<g filter="url(#filter0_di_2_1143)">
<path fill-rule="evenodd" clip-rule="evenodd" d="M99.5 0.878677C98.3284 -0.292895 96.4289 -0.292891 95.2574 0.878681L62.9289 33.2071C62.1788 33.9572 61.1614 34.3787 60.1005 34.3787H44.696C43.1662 34.3787 41.8294 33.4402 40.7696 32.3371C39.3139 30.8219 37.2671 29.8789 35 29.8789C30.5817 29.8789 27 33.4606 27 37.8789C27 42.2972 30.5817 45.8789 35 45.8789C37.5133 45.8789 39.7559 44.7199 41.2225 42.9073C42.3094 41.5639 43.7696 40.3787 45.4976 40.3787H56C58.2091 40.3787 60 42.1695 60 44.3787L60 102.565C60 103.891 59.4732 105.163 58.5355 106.101L40.9073 123.729C39.6565 124.98 37.731 125.151 35.975 124.938C35.6554 124.899 35.33 124.879 35 124.879C30.5817 124.879 27 128.461 27 132.879C27 137.297 30.5817 140.879 35 140.879C39.4183 140.879 43 137.297 43 132.879C43 131.39 43.2956 129.826 44.3483 128.773L62.7782 110.343C64.8411 108.28 66 105.482 66 102.565V40.2782C66 39.2173 66.4214 38.1999 67.1716 37.4497L99.5 5.12132C100.672 3.94975 100.672 2.05025 99.5 0.878677Z" fill="#110A2B" fill-opacity="0.25" shape-rendering="crispEdges"/>
</g>
<g opacity="0.6">
<mask id="path-2-inside-1_2_1143" fill="white">
<path d="M30 38C30 35.2386 32.2386 33 35 33C37.7614 33 40 35.2386 40 38C40 40.7614 37.7614 43 35 43C32.2386 43 30 40.7614 30 38Z"/>
</mask>
<path d="M30 38C30 35.2386 32.2386 33 35 33C37.7614 33 40 35.2386 40 38C40 40.7614 37.7614 43 35 43C32.2386 43 30 40.7614 30 38Z" fill="#563EEA"/>
<path d="M30 38C30 35.2386 32.2386 33 35 33C37.7614 33 40 35.2386 40 38C40 40.7614 37.7614 43 35 43C32.2386 43 30 40.7614 30 38Z" fill="url(#paint0_radial_2_1143)" style={{mixBlendMode:'overlay'}}/>
<path d="M30 38C30 35.2386 32.2386 33 35 33C37.7614 33 40 35.2386 40 38C40 40.7614 37.7614 43 35 43C32.2386 43 30 40.7614 30 38Z" fill="url(#paint1_radial_2_1143)" fillOpacity="0.2"/>
<path d="M30 37C30 34.2386 32.2386 32 35 32C37.7614 32 40 34.2386 40 37V38C40 35.7909 37.7614 34 35 34C32.2386 34 30 35.7909 30 38V37ZM40 39C40 41.7614 37.7614 44 35 44C32.2386 44 30 41.7614 30 39V38C30 40.2091 32.2386 42 35 42C37.7614 42 40 40.2091 40 38V39ZM30 43V33V43ZM40 33V43V33Z" fill="white" fill-opacity="0.15" mask="url(#path-2-inside-1_2_1143)"/>
</g>
<g filter="url(#filter1_f_2_1143)">
<mask id="path-4-inside-2_2_1143" fill="white">
<path d="M28 133C28 129.134 31.134 126 35 126C38.866 126 42 129.134 42 133C42 136.866 38.866 140 35 140C31.134 140 28 136.866 28 133Z"/>
</mask>
<path d="M28 133C28 129.134 31.134 126 35 126C38.866 126 42 129.134 42 133C42 136.866 38.866 140 35 140C31.134 140 28 136.866 28 133Z" fill="#563EEA"/>
<path d="M28 133C28 129.134 31.134 126 35 126C38.866 126 42 129.134 42 133C42 136.866 38.866 140 35 140C31.134 140 28 136.866 28 133Z" fill="url(#paint2_radial_2_1143)" style={{mixBlendMode:'overlay'}}/>
<path d="M28 133C28 129.134 31.134 126 35 126C38.866 126 42 129.134 42 133C42 136.866 38.866 140 35 140C31.134 140 28 136.866 28 133Z" fill="url(#paint3_radial_2_1143)" fill-opacity="0.2"/>
<path d="M28 132C28 128.134 31.134 125 35 125C38.866 125 42 128.134 42 132V133C42 129.686 38.866 127 35 127C31.134 127 28 129.686 28 133V132ZM42 134C42 137.866 38.866 141 35 141C31.134 141 28 137.866 28 134V133C28 136.314 31.134 139 35 139C38.866 139 42 136.314 42 133V134ZM28 140V126V140ZM42 126V140V126Z" fill="white" fill-opacity="0.15" mask="url(#path-4-inside-2_2_1143)"/>
</g>
<mask id="path-6-inside-3_2_1143" fill="white">
<path d="M30 133C30 130.239 32.2386 128 35 128C37.7614 128 40 130.239 40 133C40 135.761 37.7614 138 35 138C32.2386 138 30 135.761 30 133Z"/>
</mask>
<path d="M30 133C30 130.239 32.2386 128 35 128C37.7614 128 40 130.239 40 133C40 135.761 37.7614 138 35 138C32.2386 138 30 135.761 30 133Z" fill="#563EEA"/>
<path d="M30 133C30 130.239 32.2386 128 35 128C37.7614 128 40 130.239 40 133C40 135.761 37.7614 138 35 138C32.2386 138 30 135.761 30 133Z" fill="url(#paint4_radial_2_1143)" style={{mixBlendMode:'overlay'}}/>
<path d="M30 133C30 130.239 32.2386 128 35 128C37.7614 128 40 130.239 40 133C40 135.761 37.7614 138 35 138C32.2386 138 30 135.761 30 133Z" fill="url(#paint5_radial_2_1143)" fill-opacity="0.2"/>
<path d="M30 132C30 129.239 32.2386 127 35 127C37.7614 127 40 129.239 40 132V133C40 130.791 37.7614 129 35 129C32.2386 129 30 130.791 30 133V132ZM40 134C40 136.761 37.7614 139 35 139C32.2386 139 30 136.761 30 134V133C30 135.209 32.2386 137 35 137C37.7614 137 40 135.209 40 133V134ZM30 138V128V138ZM40 128V138V128Z" fill="white" fill-opacity="0.15" mask="url(#path-6-inside-3_2_1143)"/>
<g filter="url(#filter2_f_2_1143)">
<path d="M60 47C60 45.3431 61.3431 44 63 44C64.6569 44 66 45.3431 66 47V72C66 73.6569 64.6569 75 63 75C61.3431 75 60 73.6569 60 72V47Z" fill="#8765E4"/>
</g>
<mask id="path-9-inside-4_2_1143" fill="white">
<path d="M61 50C61 48.8954 61.8954 48 63 48C64.1046 48 65 48.8954 65 50V66C65 67.1046 64.1046 68 63 68C61.8954 68 61 67.1046 61 66V50Z"/>
</mask>
<path d="M61 50C61 48.8954 61.8954 48 63 48C64.1046 48 65 48.8954 65 50V66C65 67.1046 64.1046 68 63 68C61.8954 68 61 67.1046 61 66V50Z" fill="#7F53F6"/>
<path d="M61 50C61 48.8954 61.8954 48 63 48C64.1046 48 65 48.8954 65 50V66C65 67.1046 64.1046 68 63 68C61.8954 68 61 67.1046 61 66V50Z" fill="url(#paint6_radial_2_1143)" style={{mixBlendMode:'overlay'}}/>
<path d="M61 50C61 48.8954 61.8954 48 63 48C64.1046 48 65 48.8954 65 50V66C65 67.1046 64.1046 68 63 68C61.8954 68 61 67.1046 61 66V50Z" fill="url(#paint7_radial_2_1143)" fill-opacity="0.2"/>
<path d="M61 49C61 47.8954 61.8954 47 63 47C64.1046 47 65 47.8954 65 49V50C65 49.4477 64.1046 49 63 49C61.8954 49 61 49.4477 61 50V49ZM65 67C65 68.1046 64.1046 69 63 69C61.8954 69 61 68.1046 61 67V66C61 66.5523 61.8954 67 63 67C64.1046 67 65 66.5523 65 66V67ZM61 68V48V68ZM65 48V68V48Z" fill="white" fill-opacity="0.15" mask="url(#path-9-inside-4_2_1143)"/>
<defs>
<filter id="filter0_di_2_1143" x="27" y="0" width="75.3787" height="142.879" filterUnits="userSpaceOnUse" color-interpolation-filters="sRGB">
<feFlood flood-opacity="0" result="BackgroundImageFix"/>
<feColorMatrix in="SourceAlpha" type="matrix" values="0 0 0 0 0 0 0 0 0 0 0 0 0 0 0 0 0 0 127 0" result="hardAlpha"/>
<feOffset dx="1" dy="1"/>
<feGaussianBlur stdDeviation="0.5"/>
<feComposite in2="hardAlpha" operator="out"/>
<feColorMatrix type="matrix" values="0 0 0 0 1 0 0 0 0 1 0 0 0 0 1 0 0 0 0.08 0"/>
<feBlend mode="normal" in2="BackgroundImageFix" result="effect1_dropShadow_2_1143"/>
<feBlend mode="normal" in="SourceGraphic" in2="effect1_dropShadow_2_1143" result="shape"/>
<feColorMatrix in="SourceAlpha" type="matrix" values="0 0 0 0 0 0 0 0 0 0 0 0 0 0 0 0 0 0 127 0" result="hardAlpha"/>
<feOffset dx="1"/>
<feGaussianBlur stdDeviation="1.5"/>
<feComposite in2="hardAlpha" operator="arithmetic" k2="-1" k3="1"/>
<feColorMatrix type="matrix" values="0 0 0 0 0.00547059 0 0 0 0 0.0187459 0 0 0 0 0.116098 0 0 0 0.6 0"/>
<feBlend mode="normal" in2="shape" result="effect2_innerShadow_2_1143"/>
</filter>
<filter id="filter1_f_2_1143" x="0.299999" y="98.3" width="69.4" height="69.4" filterUnits="userSpaceOnUse" color-interpolation-filters="sRGB">
<feFlood flood-opacity="0" result="BackgroundImageFix"/>
<feBlend mode="normal" in="SourceGraphic" in2="BackgroundImageFix" result="shape"/>
<feGaussianBlur stdDeviation="13.85" result="effect1_foregroundBlur_2_1143"/>
</filter>
<filter id="filter2_f_2_1143" x="43.3" y="27.3" width="39.4" height="64.4" filterUnits="userSpaceOnUse" color-interpolation-filters="sRGB">
<feFlood flood-opacity="0" result="BackgroundImageFix"/>
<feBlend mode="normal" in="SourceGraphic" in2="BackgroundImageFix" result="shape"/>
<feGaussianBlur stdDeviation="8.35" result="effect1_foregroundBlur_2_1143"/>
</filter>
<radialGradient id="paint0_radial_2_1143" cx="0" cy="0" r="1" gradientUnits="userSpaceOnUse" gradientTransform="translate(35 40.8261) rotate(90) scale(8.47826 64.7434)">
<stop stop-color="white"/>
<stop offset="1" stop-color="white" stop-opacity="0"/>
</radialGradient>
<radialGradient id="paint1_radial_2_1143" cx="0" cy="0" r="1" gradientUnits="userSpaceOnUse" gradientTransform="translate(35 41.0435) rotate(90) scale(3.04348 11.6667)">
<stop stop-color="white"/>
<stop offset="1" stop-color="white" stop-opacity="0"/>
</radialGradient>
<radialGradient id="paint2_radial_2_1143" cx="0" cy="0" r="1" gradientUnits="userSpaceOnUse" gradientTransform="translate(35 136.957) rotate(90) scale(11.8696 90.6407)">
<stop stop-color="white"/>
<stop offset="1" stop-color="white" stop-opacity="0"/>
</radialGradient>
<radialGradient id="paint3_radial_2_1143" cx="0" cy="0" r="1" gradientUnits="userSpaceOnUse" gradientTransform="translate(35 137.261) rotate(90) scale(4.26087 16.3333)">
<stop stop-color="white"/>
<stop offset="1" stop-color="white" stop-opacity="0"/>
</radialGradient>
<radialGradient id="paint4_radial_2_1143" cx="0" cy="0" r="1" gradientUnits="userSpaceOnUse" gradientTransform="translate(35 135.826) rotate(90) scale(8.47826 64.7434)">
<stop stop-color="white"/>
<stop offset="1" stop-color="white" stop-opacity="0"/>
</radialGradient>
<radialGradient id="paint5_radial_2_1143" cx="0" cy="0" r="1" gradientUnits="userSpaceOnUse" gradientTransform="translate(35 136.043) rotate(90) scale(3.04348 11.6667)">
<stop stop-color="white"/>
<stop offset="1" stop-color="white" stop-opacity="0"/>
</radialGradient>
<radialGradient id="paint6_radial_2_1143" cx="0" cy="0" r="1" gradientUnits="userSpaceOnUse" gradientTransform="translate(63 63.6522) rotate(90) scale(16.9565 25.8973)">
<stop stop-color="white"/>
<stop offset="1" stop-color="white" stop-opacity="0"/>
</radialGradient>
<radialGradient id="paint7_radial_2_1143" cx="0" cy="0" r="1" gradientUnits="userSpaceOnUse" gradientTransform="translate(63 64.087) rotate(90) scale(6.08696 4.66667)">
<stop stop-color="white"/>
<stop offset="1" stop-color="white" stop-opacity="0"/>
</radialGradient>
</defs>
</svg>